<svg width="201" height="201" fill="none" xmlns="http://www.w3.org/2000/svg"><path d="M101.212.401h-.455C45.654.401.985 45.084.985 100.203v.455c0 55.119 44.67 99.802 99.772 99.802h.455c55.103 0 99.773-44.683 99.773-99.802v-.455c0-55.12-44.67-99.802-99.773-99.802z" fill="#383D38"/><path d="M131.931 41.102H70.045c-17.097 0-31.006 13.914-31.006 31.016v56.633c0 17.102 13.91 31.014 31.006 31.014h61.886c17.097 0 31.006-13.912 31.006-31.014V72.118c0-17.102-13.909-31.015-31.006-31.015zM49.977 72.118c0-11.068 9.004-20.074 20.068-20.074h61.886c11.064 0 20.068 9.006 20.068 20.074v56.633c0 11.067-9.004 20.073-20.068 20.073H70.045c-11.064 0-20.068-9.006-20.068-20.073V72.118z" fill="#fff"/><path d="M100.988 129.276c15.899 0 28.841-12.939 28.841-28.849s-12.935-28.85-28.841-28.85-28.84 12.94-28.84 28.85c0 15.91 12.934 28.849 28.84 28.849zm0-46.75c9.873 0 17.903 8.032 17.903 17.908 0 9.876-8.03 17.908-17.903 17.908s-17.903-8.032-17.903-17.908c0-9.876 8.03-17.908 17.903-17.908zM132.499 76.239c4.281 0 7.77-3.484 7.77-7.773 0-4.29-3.482-7.773-7.77-7.773-4.289 0-7.771 3.483-7.771 7.773 0 4.29 3.482 7.773 7.771 7.773z" fill="#fff"/></svg>